HIERARCHY
ROOT Hips
{
  OFFSET -833.208 93.8648 -288.714
  CHANNELS 6 Xposition Yposition Zposition Zrotation Xrotation Yrotation
  JOINT RightUpLeg
  {
    OFFSET -9.46969 -1.50639 -0.0273469
    CHANNELS 3 Zrotation Xrotation Yrotation
    JOINT RightLeg
    {
      OFFSET -0.165549 -41.841 -0.0822336
      CHANNELS 3 Zrotation Xrotation Yrotation
      JOINT RightFoot
      {
        OFFSET 0.00858245 -41.8727 -0.048729
        CHANNELS 3 Zrotation Xrotation Yrotation
        End Site
        {
          OFFSET 0 -7.69 17.5
        }
      }
    }
  }
  JOINT LeftUpLeg
  {
    OFFSET 9.35343 -1.63104 -0.116667
    CHANNELS 3 Zrotation Xrotation Yrotation
    JOINT LeftLeg
    {
      OFFSET 0.0561996 -41.899 -0.0448442
      CHANNELS 3 Zrotation Xrotation Yrotation
      JOINT LeftFoot
      {
        OFFSET -0.691763 -41.9643 0.0380386
        CHANNELS 3 Zrotation Xrotation Yrotation
        End Site
        {
          OFFSET 0 -7.69 17.5
        }
      }
    }
  }
  JOINT Spine
  {
    OFFSET 0.141981 14.3078 0.0500503
    CHANNELS 3 Zrotation Xrotation Yrotation
    JOINT Spine1
    {
      OFFSET 0.111597 9.71388 0.0157612
      CHANNELS 3 Zrotation Xrotation Yrotation
      JOINT Spine2
      {
        OFFSET 0.0166731 10.1213 0.0585416
        CHANNELS 3 Zrotation Xrotation Yrotation
        JOINT Spine3
        {
          OFFSET 0.0152568 9.71316 0.0269802
          CHANNELS 3 Zrotation Xrotation Yrotation
          JOINT Neck
          {
            OFFSET 0.00889308 10.3794 0.0204106
            CHANNELS 3 Zrotation Xrotation Yrotation
            JOINT Head
            {
              OFFSET 0.0245936 9.4722 0.0132144
              CHANNELS 3 Zrotation Xrotation Yrotation
              End Site
              {
                OFFSET 0 15.95 0
              }
            }
          }
          JOINT RightShoulder
          {
            OFFSET -3.18516 6.93808 0.0716447
            CHANNELS 3 Zrotation Xrotation Yrotation
            JOINT RightArm
            {
              OFFSET -12.7291 -0.0150215 0.0732851
              CHANNELS 3 Zrotation Xrotation Yrotation
              JOINT RightForeArm
              {
                OFFSET -26.3167 -0.135893 0.277378
                CHANNELS 3 Zrotation Xrotation Yrotation
                JOINT RightHand
                {
                  OFFSET -25.8967 -0.28455 0.114449
                  CHANNELS 3 Zrotation Xrotation Yrotation
                  JOINT RightHandThumb1
                  {
                    OFFSET -2.48905 0.190105 3.12053
                    CHANNELS 3 Zrotation Xrotation Yrotation
                    JOINT RightHandThumb2
                    {
                      OFFSET -3.68274 0 0
                      CHANNELS 3 Zrotation Xrotation Yrotation
                      JOINT RightHandThumb3
                      {
                        OFFSET -2.55832 0 0
                        CHANNELS 3 Zrotation Xrotation Yrotation
                        End Site
                        {
                          OFFSET -2.194 0 0
                        }
                      }
                    }
                  }
                  JOINT RightInHandIndex
                  {
                    OFFSET -3.22368 0.508421 1.97842
                    CHANNELS 3 Zrotation Xrotation Yrotation
                    JOINT RightHandIndex1
                    {
                      OFFSET -5.21684 -0.091368 0.999158
                      CHANNELS 3 Zrotation Xrotation Yrotation
                      JOINT RightHandIndex2
                      {
                        OFFSET -3.61937 0 0
                        CHANNELS 3 Zrotation Xrotation Yrotation
                        JOINT RightHandIndex3
                        {
                          OFFSET -2.0521 0 0
                          CHANNELS 3 Zrotation Xrotation Yrotation
                          End Site
                          {
                            OFFSET -1.805 0 0
                          }
                        }
                      }
                    }
                  }
                  JOINT RightInHandMiddle
                  {
                    OFFSET -3.38211 0.517263 0.756737
                    CHANNELS 3 Zrotation Xrotation Yrotation
                    JOINT RightHandMiddle1
                    {
                      OFFSET -5.17411 -0.084 0.313895
                      CHANNELS 3 Zrotation Xrotation Yrotation
                      JOINT RightHandMiddle2
                      {
                        OFFSET -3.94947 0 0
                        CHANNELS 3 Zrotation Xrotation Yrotation
                        JOINT RightHandMiddle3
                        {
                          OFFSET -2.47579 0 0
                          CHANNELS 3 Zrotation Xrotation Yrotation
                          End Site
                          {
                            OFFSET -1.975 0 0
                          }
                        }
                      }
                    }
                  }
                  JOINT RightInHandRing
                  {
                    OFFSET -3.36516 0.537895 -0.128947
                    CHANNELS 3 Zrotation Xrotation Yrotation
                    JOINT RightHandRing1
                    {
                      OFFSET -4.63474 -0.022105 -0.478947
                      CHANNELS 3 Zrotation Xrotation Yrotation
                      JOINT RightHandRing2
                      {
                        OFFSET -3.44238 0 0
                        CHANNELS 3 Zrotation Xrotation Yrotation
                        JOINT RightHandRing3
                        {
                          OFFSET -2.3881 0 0
                          CHANNELS 3 Zrotation Xrotation Yrotation
                          End Site
                          {
                            OFFSET -1.857 0 0
                          }
                        }
                      }
                    }
                  }
                  JOINT RightInHandPinky
                  {
                    OFFSET -3.16105 0.469368 -1.20179
                    CHANNELS 3 Zrotation Xrotation Yrotation
                    JOINT RightHandPinky1
                    {
                      OFFSET -4.14105 -0.022105 -1.09053
                      CHANNELS 3 Zrotation Xrotation Yrotation
                      JOINT RightHandPinky2
                      {
                        OFFSET -2.75653 0 0
                        CHANNELS 3 Zrotation Xrotation Yrotation
                        JOINT RightHandPinky3
                        {
                          OFFSET -1.74189 0 0
                          CHANNELS 3 Zrotation Xrotation Yrotation
                          End Site
                          {
                            OFFSET -1.645 0 0
                          }
                        }
                      }
                    }
                  }
                }
              }
            }
          }
          JOINT LeftShoulder
          {
            OFFSET 3.16364 6.90788 0.0242835
            CHANNELS 3 Zrotation Xrotation Yrotation
            JOINT LeftArm
            {
              OFFSET 12.8435 -0.0470973 -0.123249
              CHANNELS 3 Zrotation Xrotation Yrotation
              JOINT LeftForeArm
              {
                OFFSET 26.4775 0.211768 -0.0017383
                CHANNELS 3 Zrotation Xrotation Yrotation
                JOINT LeftHand
                {
                  OFFSET 25.7971 0.0145167 0.204137
                  CHANNELS 3 Zrotation Xrotation Yrotation
                  JOINT LeftHandThumb1
                  {
                    OFFSET 2.48905 0.190105 3.12053
                    CHANNELS 3 Zrotation Xrotation Yrotation
                    JOINT LeftHandThumb2
                    {
                      OFFSET 3.68274 0 0
                      CHANNELS 3 Zrotation Xrotation Yrotation
                      JOINT LeftHandThumb3
                      {
                        OFFSET 2.55832 0 0
                        CHANNELS 3 Zrotation Xrotation Yrotation
                        End Site
                        {
                          OFFSET 2.194 0 0
                        }
                      }
                    }
                  }
                  JOINT LeftInHandIndex
                  {
                    OFFSET 3.22368 0.508421 1.97842
                    CHANNELS 3 Zrotation Xrotation Yrotation
                    JOINT LeftHandIndex1
                    {
                      OFFSET 5.21684 -0.091368 0.999158
                      CHANNELS 3 Zrotation Xrotation Yrotation
                      JOINT LeftHandIndex2
                      {
                        OFFSET 3.61937 0 0
                        CHANNELS 3 Zrotation Xrotation Yrotation
                        JOINT LeftHandIndex3
                        {
                          OFFSET 2.0521 0 0
                          CHANNELS 3 Zrotation Xrotation Yrotation
                          End Site
                          {
                            OFFSET 1.805 0 0
                          }
                        }
                      }
                    }
                  }
                  JOINT LeftInHandMiddle
                  {
                    OFFSET 3.38211 0.517263 0.756737
                    CHANNELS 3 Zrotation Xrotation Yrotation
                    JOINT LeftHandMiddle1
                    {
                      OFFSET 5.17411 -0.084 0.313895
                      CHANNELS 3 Zrotation Xrotation Yrotation
                      JOINT LeftHandMiddle2
                      {
                        OFFSET 3.94947 0 0
                        CHANNELS 3 Zrotation Xrotation Yrotation
                        JOINT LeftHandMiddle3
                        {
                          OFFSET 2.47579 0 0
                          CHANNELS 3 Zrotation Xrotation Yrotation
                          End Site
                          {
                            OFFSET 1.975 0 0
                          }
                        }
                      }
                    }
                  }
                  JOINT LeftInHandRing
                  {
                    OFFSET 3.36516 0.537895 -0.128947
                    CHANNELS 3 Zrotation Xrotation Yrotation
                    JOINT LeftHandRing1
                    {
                      OFFSET 4.63474 -0.022105 -0.478947
                      CHANNELS 3 Zrotation Xrotation Yrotation
                      JOINT LeftHandRing2
                      {
                        OFFSET 3.44238 0 0
                        CHANNELS 3 Zrotation Xrotation Yrotation
                        JOINT LeftHandRing3
                        {
                          OFFSET 2.3881 0 0
                          CHANNELS 3 Zrotation Xrotation Yrotation
                          End Site
                          {
                            OFFSET 1.857 0 0
                          }
                        }
                      }
                    }
                  }
                  JOINT LeftInHandPinky
                  {
                    OFFSET 3.16105 0.469368 -1.20179
                    CHANNELS 3 Zrotation Xrotation Yrotation
                    JOINT LeftHandPinky1
                    {
                      OFFSET 4.14105 -0.022105 -1.09053
                      CHANNELS 3 Zrotation Xrotation Yrotation
                      JOINT LeftHandPinky2
                      {
                        OFFSET 2.75653 0 0
                        CHANNELS 3 Zrotation Xrotation Yrotation
                        JOINT LeftHandPinky3
                        {
                          OFFSET 1.74189 0 0
                          CHANNELS 3 Zrotation Xrotation Yrotation
                          End Site
                          {
                            OFFSET 1.645 0 0
                          }
                        }
                      }
                    }
                  }
                }
              }
            }
          }
        }
      }
    }
  }
}
MOTION
Frames:	4
Frame Time:	0.00833333
-820 92.9873 -293.586 -1.84258 -4.38591 147.677 0.472555 -10.5357 2.29209 2.97704 9.12701 14.706 3.68751 -4.79221 12.6527 21.1933 0.860837 -13.3708 -9.12539 22.4253 25.7888 -10.0001 25.2029 13.5255 6.74935 15.1573 -34.1862 0.925331 1.98763 -8.45263 1.0214 2.53024 -12.5822 -0.547574 -0.48173 2.66499 -2.62089 -5.77861 39.2984 -7.9382 -4.40312 26.1274 -1.68958 -23.0954 19.4399 58.5506 0.101407 26.2887 11.0666 -21.8862 113.513 128.891 -63.014 120.948 28.184 10.7294 19.1592 -1.21111e-15 0 -10 -2.46587e-16 3.18055e-15 -10 0 0 -3.18055e-15 19.9818 0.871897 2.3964 24 -1.27222e-14 -0 20 -3.18055e-15 4.77083e-15 0 0 -3.18055e-15 20 3.18055e-15 3.18055e-15 24 -3.18055e-15 3.18055e-15 20 -3.18055e-15 6.36111e-15 0 0 -3.18055e-15 19.9748 -1.02565 -2.81938 24 1.27222e-14 -2.38542e-15 20 9.54166e-15 1.19271e-15 0 0 -3.18055e-15 19.7815 -3.00948 -8.30515 24 3.18055e-15 -1.59028e-15 20 3.18055e-15 -1.39149e-15 7.96555 -6.961 32.6038 -4.84068 33.1054 -123.111 2.49607 -20.476 -77.5366 9.59378 1.02162 -21.4865 -28.184 10.7294 -19.1592 5.0572e-15 7.95139e-15 10 1.22175e-14 3.97569e-15 10 -3.18055e-15 3.18055e-15 -7.95139e-16 -19.9818 0.871897 -2.3964 -24 8.34896e-15 9.54166e-15 -20 -5.06901e-15 3.33958e-14 -3.18055e-15 3.18055e-15 -7.95139e-16 -20 7.15625e-15 7.95139e-16 -24 -1.98785e-16 3.97569e-15 -20 -6.4605e-15 3.18055e-14 -3.18055e-15 3.18055e-15 -7.95139e-16 -19.9748 -1.02565 2.81938 -24 -1.59028e-15 1.11319e-14 -20 -3.18055e-15 2.14687e-14 -3.18055e-15 3.18055e-15 -7.95139e-16 -19.7815 -3.00948 8.30515 -24 -1.32689e-14 1.70955e-14 -20 -7.60351e-15 3.77691e-14 
-820.157 93.0209 -293.485 -1.94523 -4.53855 148.16 0.261799 -10.7901 2.21266 3.12382 9.11798 14.3487 3.68432 -4.78333 12.545 21.1228 0.659152 -13.2774 -9.08601 22.0781 26.0747 -9.90017 24.6833 13.84 6.83642 15.1938 -33.9653 0.948558 1.98724 -8.38619 1.05876 2.53409 -12.5018 -0.559591 -0.481295 2.6624 -2.68017 -5.69951 39.1034 -8.15528 -4.0762 26.1876 -1.94954 -23.1247 19.3381 58.7301 0.70466 26.182 11.3849 -21.636 112.58 125.733 -62.2535 116.092 28.184 10.7294 19.1592 -3.47621e-15 3.18055e-15 -10 -3.79044e-15 -3.18055e-15 -10 -1.59028e-15 0 -6.36111e-15 19.9818 0.871897 2.3964 24 -3.18055e-15 2.38542e-15 20 -3.18055e-15 4.77083e-15 -1.59028e-15 0 -6.36111e-15 20 6.36111e-15 -3.18055e-15 24 9.54166e-15 -0 20 -6.36111e-15 6.36111e-15 -1.59028e-15 0 -6.36111e-15 19.9748 -1.02565 -2.81938 24 0 -2.38542e-15 20 0 -4.77083e-15 -1.59028e-15 0 -6.36111e-15 19.7815 -3.00948 -8.30515 24 6.36111e-15 4.77083e-15 20 3.18055e-15 4.77083e-15 7.66954 -6.96816 32.4506 -4.98225 33.2618 -123.117 1.85695 -20.4602 -76.3127 9.89046 0.795383 -21.479 -28.184 10.7294 -19.1592 2.80409e-16 -1.59028e-15 10 2.10307e-15 -1.19271e-14 10 -3.18055e-15 -2.38542e-15 -5.56597e-15 -19.9818 0.871897 -2.3964 -24 -4.37326e-15 -7.15625e-15 -20 2.98177e-15 -2.38542e-14 -3.18055e-15 -2.38542e-15 -5.56597e-15 -20 -1.59028e-15 -1.19271e-14 -24 1.78906e-15 -7.95139e-16 -20 3.47873e-15 -2.62396e-14 -3.18055e-15 -2.38542e-15 -5.56597e-15 -19.9748 -1.02565 2.81938 -24 9.54166e-15 -1.35174e-14 -20 9.14409e-15 -2.46493e-14 -3.18055e-15 -2.38542e-15 -5.56597e-15 -19.7815 -3.00948 8.30515 -24 -5.76476e-15 -1.2921e-14 -20 1.56294e-14 -3.65764e-14 
-820.315 93.0524 -293.385 -2.04112 -4.69737 148.675 0.0472273 -11.0624 2.13682 3.2783 9.13241 13.9713 3.67863 -4.781 12.4168 21.1229 0.310053 -13.6574 -9.3195 21.7518 26.914 -9.75395 24.2469 14.1387 6.93933 15.2259 -33.7355 0.976093 1.98657 -8.31629 1.10311 2.53873 -12.4168 -0.572846 -0.480896 2.65889 -2.74466 -5.61537 38.8448 -8.39376 -3.7408 26.2751 -2.20999 -23.162 19.2395 58.9051 1.31996 26.0484 11.7325 -21.3843 111.638 122.711 -61.4316 111.285 28.184 10.7294 19.1592 -2.17563e-15 -3.18055e-15 -10 4.21597e-15 -1.27222e-14 -10 3.18055e-15 -6.36111e-15 3.18055e-15 19.9818 0.871897 2.3964 24 0 6.36111e-15 20 0 5.56597e-15 3.18055e-15 -6.36111e-15 3.18055e-15 20 0 -0 24 6.36111e-15 1.27222e-14 20 1.27222e-14 -0 3.18055e-15 -6.36111e-15 3.18055e-15 19.9748 -1.02565 -2.81938 24 -3.18055e-15 6.36111e-15 20 -3.18055e-15 7.95139e-16 3.18055e-15 -6.36111e-15 3.18055e-15 19.7815 -3.00948 -8.30515 24 3.18055e-15 4.77083e-15 20 -6.36111e-15 1.59028e-15 7.36194 -7.00436 32.2504 -5.3585 33.6159 -122.849 1.13472 -20.2403 -75.272 10.1678 0.617906 -21.4556 -28.184 10.7294 -19.1592 1.17968e-14 6.36111e-15 10 5.75822e-15 3.97569e-15 10 -3.18055e-15 2.38542e-15 3.18055e-15 -19.9818 0.871897 -2.3964 -24 -2.18663e-15 -6.36111e-15 -20 1.98785e-15 1.66979e-14 -3.18055e-15 2.38542e-15 3.18055e-15 -20 6.36111e-15 3.97569e-15 -24 4.57205e-15 -0 -20 -3.62782e-15 1.90833e-14 -3.18055e-15 2.38542e-15 3.18055e-15 -19.9748 -1.02565 2.81938 -24 -1.59028e-15 -6.75868e-15 -20 -1.83876e-15 2.34566e-14 -3.18055e-15 2.38542e-15 3.18055e-15 -19.7815 -3.00948 8.30515 -24 2.31087e-15 3.97569e-15 -20 5.90142e-16 1.59028e-14 
-820.474 93.0808 -293.283 -2.12946 -4.86129 149.215 -0.174073 -11.3441 2.06279 3.44696 9.162 13.576 3.66833 -4.78542 12.2735 21.142 -0.0813847 -14.1704 -9.61476 21.4307 27.9107 -9.61663 23.7887 14.4042 7.05425 15.257 -33.5074 1.00628 1.98161 -8.24557 1.15147 2.54215 -12.3307 -0.586628 -0.480542 2.6549 -2.81017 -5.52372 38.5473 -8.64428 -3.39105 26.3805 -2.45523 -23.1934 19.1602 59.0598 1.92129 25.9113 12.1279 -21.1292 110.675 119.837 -60.5844 106.544 28.184 10.7294 19.1592 -7.02006e-15 -3.18055e-15 -10 -2.17563e-15 -3.18055e-15 -10 1.59028e-15 9.54166e-15 -0 19.9818 0.871897 2.3964 24 -6.36111e-15 1.19271e-14 20 0 -0 1.59028e-15 9.54166e-15 -0 20 -3.18055e-15 6.36111e-15 24 0 1.19271e-14 20 0 7.95139e-16 1.59028e-15 9.54166e-15 -0 19.9748 -1.02565 -2.81938 24 -9.54166e-15 2.06736e-14 20 -6.36111e-15 9.93923e-15 1.59028e-15 9.54166e-15 -0 19.7815 -3.00948 -8.30515 24 0 -0 20 9.54166e-15 1.21259e-14 7.04515 -7.04316 32.039 -5.77097 34.0144 -122.514 0.399164 -19.9972 -74.2517 10.4277 0.449737 -21.4036 -28.184 10.7294 -19.1592 -2.80409e-16 1.59028e-15 10 -9.33835e-15 -1.98785e-15 10 -6.36111e-15 -1.59028e-15 1.98785e-15 -19.9818 0.871897 -2.3964 -24 4.77083e-15 -7.95139e-16 -20 3.32964e-15 -1.66979e-14 -6.36111e-15 -1.59028e-15 1.98785e-15 -20 -2.38542e-15 -4.77083e-15 -24 -3.18055e-15 -2.38542e-15 -20 -1.19271e-15 3.18055e-15 -6.36111e-15 -1.59028e-15 1.98785e-15 -19.9748 -1.02565 2.81938 -24 6.85807e-15 -3.97569e-16 -20 -2.11209e-15 -5.96354e-15 -6.36111e-15 -1.59028e-15 1.98785e-15 -19.7815 -3.00948 8.30515 -24 5.32991e-15 7.20594e-16 -20 -8.12532e-15 -1.03617e-14 
